<svg width="33" height="32" viewBox="0 0 33 32" fill="none" xmlns="http://www.w3.org/2000/svg">
<path d="M28.1079 16.7076L19.1079 25.7076C18.9202 25.8952 18.6658 26.0006 18.4004 26.0006C18.135 26.0006 17.8805 25.8952 17.6929 25.7076C17.5052 25.5199 17.3998 25.2654 17.3998 25.0001C17.3998 24.7347 17.5052 24.4802 17.6929 24.2926L24.9866 17.0001H5.40039C5.13517 17.0001 4.88082 16.8947 4.69328 16.7072C4.50575 16.5196 4.40039 16.2653 4.40039 16.0001C4.40039 15.7349 4.50575 15.4805 4.69328 15.293C4.88082 15.1054 5.13517 15.0001 5.40039 15.0001H24.9866L17.6929 7.70757C17.5052 7.51993 17.3998 7.26543 17.3998 7.00007C17.3998 6.7347 17.5052 6.48021 17.6929 6.29257C17.8805 6.10493 18.135 5.99951 18.4004 5.99951C18.6658 5.99951 18.9202 6.10493 19.1079 6.29257L28.1079 15.2926C28.2009 15.3854 28.2746 15.4957 28.325 15.6171C28.3753 15.7385 28.4012 15.8687 28.4012 16.0001C28.4012 16.1315 28.3753 16.2616 28.325 16.383C28.2746 16.5044 28.2009 16.6147 28.1079 16.7076Z" fill="#F27754"/>
</svg>
